<svg width="3000" height="3000" viewBox="0 0 3000 3000" fill="none" xmlns="http://www.w3.org/2000/svg">
<path d="M1523.33 2598.86C1526.54 2595.65 1529.75 2592.43 1532.97 2589.22C1542.14 2580.04 1551.31 2570.87 1560.48 2561.7C1574.98 2547.2 1589.47 2532.71 1603.97 2518.21C1623.22 2498.96 1642.48 2479.7 1661.73 2460.45C1684.9 2437.28 1708.07 2414.11 1731.25 2390.94C1758 2364.19 1784.74 2337.44 1811.49 2310.69C1840.84 2281.34 1870.19 2251.99 1899.55 2222.64C1931.24 2190.95 1962.93 2159.25 1994.62 2127.56C2027.72 2094.46 2060.83 2061.35 2093.94 2028.25C2127.92 1994.27 2161.9 1960.29 2195.88 1926.31C2230.21 1891.98 2264.53 1857.65 2298.87 1823.32C2332.58 1789.6 2366.3 1755.88 2400.02 1722.17C2432.91 1689.27 2465.81 1656.38 2498.71 1623.48C2529.83 1592.35 2560.96 1561.23 2592.08 1530.11C2620.9 1501.29 2649.71 1472.47 2678.54 1443.65C2704.49 1417.69 2730.45 1391.73 2756.41 1365.78C2778.64 1343.54 2800.87 1321.32 2823.1 1299.08C2841.25 1280.94 2859.4 1262.79 2877.54 1244.64C2890.75 1231.44 2903.95 1218.23 2917.15 1205.03C2924.94 1197.24 2932.73 1189.45 2940.52 1181.66C2941.91 1180.27 2944.48 1178.54 2945.4 1176.79C2945.51 1176.57 2945.97 1176.39 2946.03 1176.15C2946.24 1175.32 2945.05 1172.92 2944.81 1172.15C2943.97 1169.37 2943.12 1166.58 2942.28 1163.8C2941.19 1160.25 2940.06 1156.7 2938.95 1153.16C2929.56 1123.25 2919.24 1093.63 2908.01 1064.37C2896.5 1034.37 2884.11 1004.73 2870.83 975.479C2857.8 946.768 2843.81 918.501 2829.05 890.644C2814.66 863.502 2799.4 836.789 2783.32 810.617C2766.52 783.272 2748.93 756.421 2730.42 730.197C2711.69 703.655 2692.06 677.801 2671.73 652.468C2652.12 628.049 2631.56 604.354 2610.35 581.319C2588.68 557.781 2566.26 534.889 2543.05 512.874C2519.08 490.139 2494.41 468.221 2469.05 447.046C2444.57 426.604 2419.29 407.067 2393.46 388.36C2367.79 369.773 2341.54 351.911 2314.66 335.119C2286.77 317.695 2258.42 301.098 2229.49 285.459C2201 270.066 2171.96 255.706 2142.52 242.227C2114.07 229.206 2085.18 217.093 2055.94 205.982C2025.73 194.501 1995.21 183.902 1964.34 174.35C1933.32 164.752 1902.01 156.188 1870.46 148.523C1840.53 141.251 1810.34 134.976 1780.02 129.581C1748.97 124.058 1717.76 119.416 1686.43 115.803C1654.68 112.144 1622.87 109.444 1590.97 107.562C1559.94 105.73 1528.79 104.876 1497.71 105.014C1464.65 105.162 1431.63 106.163 1398.62 108.175C1368.38 110.016 1338.17 112.813 1308.09 116.44C1276.71 120.223 1245.42 124.902 1214.34 130.615C1182.54 136.457 1150.96 143.277 1119.56 150.974C1089.06 158.449 1058.79 167.022 1028.84 176.468C998.627 185.992 968.657 196.398 939.139 207.887C908.711 219.728 878.672 232.44 849.034 246.14C819.677 259.711 790.791 274.334 762.413 289.843C734.856 304.904 707.719 320.819 681.241 337.708C653.601 355.344 626.487 373.751 600.037 393.131C573.62 412.484 547.909 432.773 522.83 453.829C498.941 473.887 475.722 494.795 453.231 516.413C429.818 538.918 407.106 562.147 385.243 586.16C363.348 610.21 342.311 634.98 321.957 660.35C302.341 684.797 283.634 710.014 265.694 735.711C247.642 761.561 230.357 787.983 214.036 814.963C197.364 842.534 181.523 870.557 166.517 899.07C151.963 926.719 138.346 954.88 125.574 983.397C112.963 1011.55 101.113 1040.08 90.2507 1068.96C78.7055 1099.66 67.9817 1130.65 58.2823 1161.98C57.0779 1165.86 55.9151 1169.76 54.7292 1173.65C54.5354 1174.29 53.8433 1175.58 54.0324 1176.23C54.1386 1176.6 54.8492 1176.96 55.0753 1177.27C56.538 1179.33 58.9052 1181.1 60.6818 1182.88C68.8954 1191.09 77.1089 1199.31 85.3225 1207.52C99.018 1221.22 112.713 1234.91 126.414 1248.61C144.802 1267 163.195 1285.39 181.583 1303.78C204.263 1326.46 226.942 1349.14 249.622 1371.82C275.67 1397.87 301.723 1423.92 327.771 1449.97C356.883 1479.08 386 1508.2 415.112 1537.31C446.388 1568.59 477.669 1599.87 508.945 1631.14C541.841 1664.04 574.737 1696.94 607.633 1729.83C641.618 1763.82 675.607 1797.81 709.592 1831.79C743.711 1865.91 777.825 1900.02 811.943 1934.14C845.988 1968.19 880.028 2002.23 914.073 2036.27C947.08 2069.28 980.091 2102.29 1013.1 2135.3C1044.54 2166.74 1075.99 2198.19 1107.44 2229.64C1136.78 2258.98 1166.12 2288.32 1195.46 2317.66C1221.79 2343.99 1248.13 2370.33 1274.46 2396.65C1297.48 2419.68 1320.49 2442.69 1343.51 2465.71C1362.3 2484.5 1381.08 2503.28 1399.87 2522.06C1414.01 2536.21 1428.17 2550.36 1442.31 2564.51C1451.03 2573.23 1459.76 2581.96 1468.48 2590.68C1471.21 2593.41 1473.94 2596.14 1476.68 2598.87" fill="#8FC567"/>
<path d="M1492.4 2598.86L1467.23 2598.86L1467.23 2636.61L1492.4 2636.61L1492.4 2598.86Z" fill="#8FC567" stroke="#E74C3C" stroke-width="6.3" stroke-miterlimit="10"/>
<path d="M1532.77 2598.86L1507.6 2598.86L1507.6 2636.61L1532.77 2636.61L1532.77 2598.86Z" fill="#8FC567" stroke="#E74C3C" stroke-width="6.3" stroke-miterlimit="10"/>
<path d="M1511.27 2636.61L1511.27 2672.52L1488.73 2672.52L1488.73 2636.61" fill="#8FC567"/>
<path d="M1511.27 2636.61L1511.27 2672.52L1488.73 2672.52L1488.73 2636.61" stroke="#E74C3C" stroke-width="6.3" stroke-miterlimit="10"/>
<g filter="url(#filter0_d_893_414)">
<path d="M1569.62 2579.25C1576.38 2572.5 1583.13 2565.74 1589.89 2558.98C1607.8 2541.08 1625.7 2523.18 1643.6 2505.27C1669.11 2479.77 1694.62 2454.26 1720.12 2428.76C1749.68 2399.2 1779.24 2369.64 1808.8 2340.08C1838.87 2310.01 1868.93 2279.95 1898.99 2249.88C1926.02 2222.85 1953.05 2195.83 1980.07 2168.81C2000.57 2148.31 2021.06 2127.82 2041.56 2107.32C2051.82 2097.06 2062.08 2086.8 2072.34 2076.54C2072.7 2076.17 2073.89 2075.36 2074.03 2074.84C2074.45 2073.32 2072.61 2069.93 2072.11 2068.27C2071.12 2065.03 2070.12 2061.8 2069.09 2058.58C2065.01 2045.87 2060.5 2033.3 2055.57 2020.91C2045.45 1995.41 2033.57 1970.61 2020.04 1946.75C2006.11 1922.18 1990.45 1898.6 1973.19 1876.24C1956.82 1855.02 1939.01 1834.89 1919.92 1816.07C1900.88 1797.29 1880.6 1779.78 1859.22 1763.71C1838.18 1747.88 1816.08 1733.5 1793.15 1720.56C1769.72 1707.33 1745.36 1695.78 1720.36 1685.84C1694.11 1675.4 1667.09 1666.89 1639.62 1660.27C1612.93 1653.84 1585.8 1649.3 1558.48 1646.6C1532.1 1643.99 1505.54 1643.17 1479.04 1644.1C1452.06 1645.05 1425.15 1647.84 1398.54 1652.41C1371.04 1657.13 1343.88 1663.82 1317.3 1672.34C1290.91 1680.79 1265.08 1691.1 1240.13 1703.17C1216.44 1714.64 1193.49 1727.61 1171.5 1742.08C1149.14 1756.79 1127.76 1773 1107.57 1790.58C1087.83 1807.76 1069.25 1826.23 1051.92 1845.84C1033.5 1866.67 1016.54 1888.82 1001.22 1912.04C985.875 1935.29 972.134 1959.59 960.178 1984.75C948.619 2009.07 938.684 2034.16 930.507 2059.82C929.488 2063.02 928.491 2066.22 927.526 2069.43C927.148 2070.68 925.611 2073.73 926.008 2074.89C926.225 2075.53 927.503 2076.38 927.965 2076.85C931.767 2080.64 935.565 2084.45 939.362 2088.24C955.393 2104.27 971.423 2120.3 987.453 2136.33C1011.77 2160.65 1036.08 2184.97 1060.4 2209.28C1089.45 2238.33 1118.51 2267.39 1147.56 2296.44C1177.81 2326.69 1208.05 2356.93 1238.3 2387.18C1266.18 2415.07 1294.07 2442.95 1321.96 2470.84C1343.94 2492.82 1365.93 2514.81 1387.91 2536.79C1400.44 2549.33 1412.98 2561.86 1425.51 2574.4C1426.7 2575.58 1428.25 2576.76 1429.24 2578.12C1430.35 2579.65 1430.27 2578.43 1429.69 2580.36C1429.02 2582.63 1427.1 2584.99 1426.07 2587.17C1424.95 2589.54 1423.94 2591.97 1423.05 2594.44C1421.26 2599.4 1419.96 2604.51 1419.15 2609.71C1415.9 2630.69 1421.13 2652.55 1433.49 2669.81C1446 2687.28 1465.31 2699.33 1486.51 2702.86C1507.32 2706.32 1529.01 2701.5 1546.39 2689.55C1563.77 2677.6 1576.04 2658.97 1580.19 2638.29C1584.25 2618.1 1580.4 2596.79 1569.62 2579.25Z" fill="#FFB845"/>
</g>
<g filter="url(#filter1_i_893_414)">
<path d="M1830.81 2178.81C1818.74 2198.47 1815.47 2222.7 1821.97 2244.83C1823.9 2251.42 1827.36 2256.97 1829.94 2263.22C1830.91 2265.59 1829.89 2265.59 1827.93 2267.55C1819.92 2275.56 1811.9 2283.58 1803.89 2291.59C1772.25 2323.23 1740.61 2354.88 1708.97 2386.52C1673.33 2422.15 1637.7 2457.79 1602.06 2493.42C1589.06 2506.43 1576.05 2519.43 1563.05 2532.43C1558.86 2536.63 1554.67 2540.82 1550.47 2545.01C1548.55 2546.93 1546.16 2550.47 1543.73 2551.75C1543 2552.14 1543.3 2552.37 1542.62 2552.38C1541.64 2552.4 1539.42 2550.52 1538.53 2550.05C1537.01 2549.23 1535.46 2548.47 1533.89 2547.76C1528.11 2545.12 1522.01 2543.16 1515.78 2541.93C1505.61 2539.93 1495.08 2539.88 1484.89 2541.8C1478.75 2542.95 1472.75 2544.81 1467.03 2547.33C1464.4 2548.49 1458.66 2552.95 1456.42 2551.94C1454.24 2550.95 1451.83 2547.35 1450.16 2545.68C1446.1 2541.61 1442.03 2537.54 1437.96 2533.48C1408.19 2503.71 1378.42 2473.94 1348.65 2444.16C1312.42 2407.94 1276.19 2371.7 1239.96 2335.48C1217.42 2312.94 1194.88 2290.39 1172.34 2267.85C1170.74 2266.26 1169.43 2265.64 1169.68 2263.82C1170.03 2261.31 1173.02 2257.77 1174.1 2255.35C1175.5 2252.26 1176.7 2249.08 1177.7 2245.84C1180.85 2235.62 1181.97 2224.8 1180.98 2214.15C1180.46 2208.68 1179.4 2203.26 1177.81 2198C1176.86 2194.87 1175.72 2191.79 1174.4 2188.79C1173.13 2185.92 1170.74 2182.92 1169.86 2179.96C1169.21 2177.81 1169.19 2179.55 1169.82 2178.15C1170.19 2177.32 1171.55 2176.41 1172.19 2175.78C1175.32 2172.64 1178.46 2169.51 1181.6 2166.37C1209.2 2138.77 1236.8 2111.17 1264.39 2083.57C1301.02 2046.95 1337.64 2010.33 1374.26 1973.71C1399.49 1948.48 1424.71 1923.26 1449.94 1898.03C1451.69 1896.28 1454.09 1892.7 1456.34 1891.62C1458.69 1890.51 1463.97 1894.81 1466.69 1896.02C1477.13 1900.67 1488.54 1903.1 1499.97 1903.1C1511.41 1903.1 1522.81 1900.67 1533.26 1896.02C1535.98 1894.81 1541.25 1890.51 1543.6 1891.62C1545.86 1892.7 1548.26 1896.29 1550.01 1898.03C1575.13 1923.15 1600.26 1948.28 1625.39 1973.41C1662.11 2010.13 1698.83 2046.86 1735.55 2083.58C1763.15 2111.18 1790.75 2138.78 1818.35 2166.37C1822.52 2170.51 1826.66 2174.66 1830.81 2178.81Z" fill="#8FC567"/>
</g>
<path d="M1713.09 2702.85C1713.09 2688.42 1731.81 2681.71 1740.98 2692.87C1750.14 2704.03 1739.92 2721.09 1725.76 2718.28C1718.48 2716.84 1713.09 2710.27 1713.09 2702.85Z" fill="white"/>
<path d="M1286.9 2702.85C1286.9 2688.41 1268.18 2681.7 1259.02 2692.87C1249.85 2704.03 1260.07 2721.09 1274.23 2718.28C1281.51 2716.84 1286.9 2710.27 1286.9 2702.85Z" fill="white"/>
<path d="M1495.55 2613.28L1495.55 2617.74L1500 2622.19L1504.44 2617.74L1504.44 2613.28L1495.55 2613.28Z" stroke="white" stroke-width="9" stroke-miterlimit="10"/>
<path d="M1499.97 1815.73L1494.41 1821.29L1499.97 1826.85L1505.54 1821.29L1499.97 1815.73Z" stroke="white" stroke-width="9" stroke-miterlimit="10"/>
<path d="M1506.29 2238.35L1493.7 2238.35L1493.7 2241.5L1506.29 2241.5L1506.29 2238.35Z" stroke="#E74C3C" stroke-width="9" stroke-miterlimit="10"/>
<g filter="url(#filter2_di_893_414)">
<path d="M1556.63 2250.94C1556.59 2227.28 1541.38 2205.61 1519.08 2197.63C1496.81 2189.65 1471.24 2196.72 1456.23 2215C1441.21 2233.29 1439.27 2259.74 1451.41 2280.03C1463.56 2300.33 1487.82 2311.09 1511.02 2306.49C1534.13 2301.91 1552.41 2282.82 1555.97 2259.53C1556.41 2256.69 1556.62 2253.82 1556.63 2250.94Z" fill="#FFB845"/>
</g>
<path d="M1894.85 2216.17L1889.29 2221.74L1894.85 2227.3L1900.41 2221.74L1894.85 2216.17Z" stroke="white" stroke-width="9" stroke-miterlimit="10"/>
<path d="M1105.08 2216.17L1099.52 2221.73L1105.08 2227.3L1110.65 2221.73L1105.08 2216.17Z" stroke="white" stroke-width="9" stroke-miterlimit="10"/>
<path d="M1967.15 2288.47L1878.16 2377.46L1922.66 2421.95L2011.64 2332.96L1967.15 2288.47Z" fill="white"/>
<path d="M1032.78 2288.47L988.287 2332.96L1077.27 2421.95L1121.77 2377.46L1032.78 2288.47Z" fill="white"/>
<defs>
<filter id="filter0_d_893_414" x="900.943" y="1618.73" width="1198.15" height="1110.22" filterUnits="userSpaceOnUse" color-interpolation-filters="sRGB">
<feFlood flood-opacity="0" result="BackgroundImageFix"/>
<feColorMatrix in="SourceAlpha" type="matrix" values="0 0 0 0 0 0 0 0 0 0 0 0 0 0 0 0 0 0 127 0" result="hardAlpha"/>
<feOffset/>
<feGaussianBlur stdDeviation="12.5"/>
<feComposite in2="hardAlpha" operator="out"/>
<feColorMatrix type="matrix" values="0 0 0 0 0.438667 0 0 0 0 0.680381 0 0 0 0 0.259619 0 0 0 1 0"/>
<feBlend mode="normal" in2="BackgroundImageFix" result="effect1_dropShadow_893_414"/>
<feBlend mode="normal" in="SourceGraphic" in2="effect1_dropShadow_893_414" result="shape"/>
</filter>
<filter id="filter1_i_893_414" x="1169.36" y="1891.44" width="661.454" height="660.943" filterUnits="userSpaceOnUse" color-interpolation-filters="sRGB">
<feFlood flood-opacity="0" result="BackgroundImageFix"/>
<feBlend mode="normal" in="SourceGraphic" in2="BackgroundImageFix" result="shape"/>
<feColorMatrix in="SourceAlpha" type="matrix" values="0 0 0 0 0 0 0 0 0 0 0 0 0 0 0 0 0 0 127 0" result="hardAlpha"/>
<feOffset/>
<feGaussianBlur stdDeviation="15"/>
<feComposite in2="hardAlpha" operator="arithmetic" k2="-1" k3="1"/>
<feColorMatrix type="matrix" values="0 0 0 0 0.252 0 0 0 0 0.390857 0 0 0 0 0.149143 0 0 0 0.25 0"/>
<feBlend mode="normal" in2="shape" result="effect1_innerShadow_893_414"/>
</filter>
<filter id="filter2_di_893_414" x="1423.48" y="2174.38" width="153.151" height="153.161" filterUnits="userSpaceOnUse" color-interpolation-filters="sRGB">
<feFlood flood-opacity="0" result="BackgroundImageFix"/>
<feColorMatrix in="SourceAlpha" type="matrix" values="0 0 0 0 0 0 0 0 0 0 0 0 0 0 0 0 0 0 127 0" result="hardAlpha"/>
<feOffset/>
<feGaussianBlur stdDeviation="10"/>
<feComposite in2="hardAlpha" operator="out"/>
<feColorMatrix type="matrix" values="0 0 0 0 0.417701 0 0 0 0 0.644766 0 0 0 0 0.249505 0 0 0 1 0"/>
<feBlend mode="normal" in2="BackgroundImageFix" result="effect1_dropShadow_893_414"/>
<feBlend mode="normal" in="SourceGraphic" in2="effect1_dropShadow_893_414" result="shape"/>
<feColorMatrix in="SourceAlpha" type="matrix" values="0 0 0 0 0 0 0 0 0 0 0 0 0 0 0 0 0 0 127 0" result="hardAlpha"/>
<feOffset/>
<feGaussianBlur stdDeviation="12.5"/>
<feComposite in2="hardAlpha" operator="arithmetic" k2="-1" k3="1"/>
<feColorMatrix type="matrix" values="0 0 0 0 0.92 0 0 0 0 0.568817 0 0 0 0 0 0 0 0 1 0"/>
<feBlend mode="normal" in2="shape" result="effect2_innerShadow_893_414"/>
</filter>
</defs>
</svg>
